<svg xmlns="http://www.w3.org/2000/svg" width="160" height="160" fill="none">
    <path fill="#8E8E8E" fill-opacity=".07" d="M160 80A79.99 79.99 0 1 0 .02 80 79.99 79.99 0 0 0 160 80Z"/>
    <g filter="url(#a)">
        <path fill="#8F8F8F" d="M39.37 121h40v1h-40z"/>
    </g>
    <g filter="url(#b)">
        <path fill="url(#c)" d="M41.63 116.53c1.39 1.63 7.51-1.14 12.25-3.43l25.3-10.61c1.96-.82 4.74-1.88 6.78-4.57 1.8-2.37 6.53-12.41-3.02-22.61-9.8-10.37-19.76-7.51-23.51-4.9-2.2 1.63-4.08 5.14-4.9 6.94-3.35 7.59-8.16 21.38-10.2 26.85-1.4 4.09-4.09 10.78-2.7 12.33Z"/>
    </g>
    <path fill="#C6C6C6" d="M53.55 79.63a48.16 48.16 0 0 0 3.27 13.15c1.48 3.85 4.37 7 8.08 8.81a29.4 29.4 0 0 0 8.65 3.27l-4.24 1.71s-2.45-.49-5.96-2.2c-3.27-1.64-6.7-4.41-9.23-9.8a28.9 28.9 0 0 1-2.61-9.88l2.04-5.06Zm-5.14 13.15s.49 4.24 4 9.55a16.32 16.32 0 0 0 9.8 7.34l-3.76 1.47s-4.25-1.22-8.33-6.77c-2.45-3.43-3.18-7.51-3.18-7.51l1.47-4.08Zm-3.6 10.04s.9 3.67 3.03 6.36c2.45 3.27 5.63 4.17 5.63 4.17l-2.94 1.3s-2.2-.49-4.57-3.5c-1.88-2.37-2.45-4.99-2.45-4.99l1.3-3.34Z"/>
    <path fill="url(#d)" d="M63.84 90.49c7.75 8.98 16.57 7.92 19.5 5.63 2.95-2.28 5.23-10.2-2.44-19.1-8.17-9.3-17.23-6.7-19.35-4.65-2.12 2.04-4.9 9.8 2.29 18.12Z"/>
    <path fill="url(#e)" d="M92.72 92.61c-2.97-1.8-4.5-1.44-6.62-.84a24.38 24.38 0 0 1-12.73 0L74.5 90c3.4.84 6.5-.75 8.63-1.66 2.8-1.2 6.53-2.76 12.39.79 2.54 1.44 5 2.4 6.79 1.98 1.36-.36 2.12-1.8 2.46-2.89l.09-.6c.33-1.8.84-5.6 4.92-7.52 4.24-2.1 8.74-2.1 8.74-2.1l.85 5.71a9.87 9.87 0 0 0-4.76.6c-4.58 1.8-.59 8.66-7.63 11-6.88 2.23-12.48-1.61-14.26-2.7Z"/>
    <path fill="url(#f)" d="M65.35 83.91 63 82c4.65-6.4 3.22-11.96 2.35-15.39a23.12 23.12 0 0 1-.87-7.66 19.13 19.13 0 0 1-2.62-5.76c-1.09-4.05-.29-8.02 1.6-11.71C67.16 34 74 34 74 34l2.26 7.48c-1.67 0-7.35 0-9.1 3.42-2.17 4.33-.72 6.94-.72 7.2l1.31-1.61c2.76-3.07 5.16-3.43 6.69-3.34.91.14 1.8.51 2.59 1.1.8.57 1.48 1.34 2.03 2.26.54.92.93 1.97 1.14 3.08a8.87 8.87 0 0 1-1.15 6.57 6.9 6.9 0 0 1-2.21 2.22c-3.13 1.98-5.82 1.8-7.56.99v.18l.43 1.44c1.02 3.97 2.91 10.18-4.43 19.01l.07-.09Zm4.22-26.94 1.09.81c1.24.54 2.54.36 4.07-.63.87-.63.95-1.26 1.02-1.44a3.17 3.17 0 0 0-.44-1.98c-.36-.54-.72-.9-1.23-.9-.88 0-2.04.63-3.2 1.9a6.44 6.44 0 0 0-1.31 2.24Z"/>
    <path fill="url(#g)" d="M75.5 85h-2.13s1.97-10.85 8.2-12.63c1.24-.33 2.47-.65 3.78-.81.82-.16 1.97-.33 2.54-.57.17-.97-.24-2.27-.82-3.72-.32-1.22-.73-2.35-.9-3.65-.4-2.43.25-4.7 1.89-6.15 1.97-1.87 5.17-2.43 8.78-1.62 2.13.4 3.61 1.46 4.92 2.35 1.97 1.21 3.04 1.86 5.42.32 2.8-1.86-.82-9.31-2.87-13.52l7.39-3c.98 2.1 5.74 13.04 2.62 19.27a7.39 7.39 0 0 1-5.33 4.05c-5.17 1.14-8.21-.8-10.43-2.27a11.1 11.1 0 0 0-3.03-1.61c-6.9-1.87 2.79 8.17-1.73 12.7-2.79 2.76-9.43 3.5-9.84 3.57C79.69 78.76 75.5 85 75.5 85Z"/>
    <path fill="#9C1713" d="M64.42 59c-.06 1.55-.13 2.45.2 4.55C66.13 65 69.38 65 69.38 65c-.2-.55-.27-1.1-.34-1.45v-.19c-3.46-2.18-4.6-4.36-4.6-4.36Z"/>
    <path fill="#FFC107" d="M56.42 67 51 64.2l2.64-4.2L58 63.01 56.42 67Z"/>
    <path fill="#FB8C00" d="M46.43 58c-3-.38-6.07-2.68-6.43-2.94L43 52c.86.64 2.79 1.79 4 1.91L46.43 58Z"/>
    <path fill="url(#h)" d="M53.12 50 48 48.54c.51-1.6.68-3.2.43-4.81L53.8 43c.42 2.26.17 4.74-.68 6.93V50Z"/>
    <path fill="#FB8C00" d="m84 46.88 3.89-.88L89 51.19l-3.89.81L84 46.87Z"/>
    <path fill="#FFC107" d="M95.9 47 93 44.1c1.52-1.3 1.85-3.1 1.85-3.1l4.15.62c0 .3-.6 3.1-3.1 5.38Z"/>
    <path fill="#FB8C00" d="m99 68.09 3.73-1.09 1.27 3.85-3.73 1.15L99 68.15v-.06Z"/>
    <path fill="url(#i)" d="m99.94 109.92-5.33-.55c.25-1.72-1.19-3.92-1.61-4.39l4.32-2.98c.33.4 3.13 3.92 2.62 8v-.08Z"/>
    <path fill="#FB8C00" d="M114.36 103c-1.79-.3-3.5-.37-5.22-.3L109 98c2 0 4 0 6 .37l-.71 4.63h.07Z"/>
    <path fill="#F48FB1" d="m108 111 2.94-3 4.06 4-2.94 3-4.06-4Z"/>
    <path fill="url(#j)" d="m96.75 78 3.25 3.71L96.25 85 93 81.29 96.75 78Z"/>
    <defs>
        <linearGradient id="c" x1="64.99" x2="64.99" y1="67.96" y2="117.02" gradientUnits="userSpaceOnUse">
            <stop stop-color="#EEF0F3"/>
            <stop offset=".93" stop-color="#D8D8D8"/>
        </linearGradient>
        <linearGradient id="d" x1="72.65" x2="72.65" y1="70.4" y2="97.72" gradientUnits="userSpaceOnUse">
            <stop stop-color="#DDDEE0"/>
            <stop offset=".93" stop-color="#9F9F9F"/>
        </linearGradient>
        <linearGradient id="e" x1="73.37" x2="120.24" y1="91.5" y2="72.41" gradientUnits="userSpaceOnUse">
            <stop stop-color="#008BCA"/>
            <stop offset="1" stop-color="#00A3FF"/>
        </linearGradient>
        <linearGradient id="f" x1="73.44" x2="58.84" y1="33.93" y2="82.14" gradientUnits="userSpaceOnUse">
            <stop stop-color="#FF2010"/>
            <stop offset="1" stop-color="#C12317"/>
        </linearGradient>
        <linearGradient id="g" x1="108.96" x2="74.28" y1="44.48" y2="83.14" gradientUnits="userSpaceOnUse">
            <stop stop-color="#FF6FA0"/>
            <stop offset="1" stop-color="#DB2D68"/>
        </linearGradient>
        <linearGradient id="h" x1="48" x2="55" y1="48.25" y2="47.29" gradientUnits="userSpaceOnUse">
            <stop stop-color="#008BCA"/>
            <stop offset="1" stop-color="#00A3FF"/>
        </linearGradient>
        <linearGradient id="i" x1="97.45" x2="96.36" y1="101.99" y2="110.27" gradientUnits="userSpaceOnUse">
            <stop stop-color="#FF2010"/>
            <stop offset="1" stop-color="#C12317"/>
        </linearGradient>
        <linearGradient id="j" x1="97.45" x2="96.61" y1="77.99" y2="85.26" gradientUnits="userSpaceOnUse">
            <stop stop-color="#FF2010"/>
            <stop offset="1" stop-color="#C12317"/>
        </linearGradient>
        <filter id="a" width="64" height="25" x="27.37" y="109" color-interpolation-filters="sRGB" filterUnits="userSpaceOnUse">
            <feFlood flood-opacity="0" result="BackgroundImageFix"/>
            <feBlend in="SourceGraphic" in2="BackgroundImageFix" result="shape"/>
            <feGaussianBlur result="effect1_foregroundBlur_215_437" stdDeviation="6"/>
        </filter>
        <filter id="b" width="47.98" height="49.31" x="41.25" y="67.96" color-interpolation-filters="sRGB" filterUnits="userSpaceOnUse">
            <feFlood flood-opacity="0" result="BackgroundImageFix"/>
            <feBlend in="SourceGraphic" in2="BackgroundImageFix" result="shape"/>
            <feColorMatrix in="SourceAlpha" result="hardAlpha" values="0 0 0 0 0 0 0 0 0 0 0 0 0 0 0 0 0 0 127 0"/>
            <feOffset dx=".5" dy=".25"/>
            <feGaussianBlur stdDeviation=".5"/>
            <feComposite in2="hardAlpha" k2="-1" k3="1" operator="arithmetic"/>
            <feColorMatrix values="0 0 0 0 1 0 0 0 0 1 0 0 0 0 1 0 0 0 1 0"/>
            <feBlend in2="shape" result="effect1_innerShadow_215_437"/>
        </filter>
    </defs>
</svg>